# xmcd CD database file
#
# Track frame offsets:
#	150
#	12341
#	27589
#	49466
#	66492
#	83634
#	99835
#	120148
#	137232
#	156525
#	172576
#	186939
#	206514
#	223346
#	236336
#
# Disc length: 3366 seconds
#
# Revision: 0
# Processed by: cddbd v1.5.2PL0 Copyright (c) Steve Scherf et al.
# Submitted via: CdAid (MTCDDB.DLL V2003.07.15)
#
DISCID=cf0d240f
DTITLE=Various Artist - Mixed Country Volume 7 Disk1
DYEAR=2006
DGENRE=Country
TTITLE0=Nobody But Me
TTITLE1=Play Something Country
TTITLE2=Believe
TTITLE3=Jesus, Take The Wheel
TTITLE4=Wal-Mart Parking Lot
TTITLE5=I Don't
TTITLE6=Come A Little Closer
TTITLE7=Settle For A Slowdown
TTITLE8=Like We Newver Loved At All
TTITLE9=Life Ain't Always Beautiful
TTITLE10=She Let Herself Go
TTITLE11=The Seashore Of Old Mexico
TTITLE12=All Jacked Up
TTITLE13=I Don't Feel Like Loving You Today
TTITLE14=One Bud Wiser
EXTD=ID3G:   2 YEAR: 2006
EXTT0=Blake Shelton
EXTT1=Brooks and Dunn
EXTT2=Brooks and Dunn
EXTT3=Carrie Underwood
EXTT4=Chris Cagle
EXTT5=Danielle Peck
EXTT6=Dierks Bentley
EXTT7=Dierks Bentley
EXTT8=Faith Hill
EXTT9=Gary Allen
EXTT10=George Strait
EXTT11=George Strait
EXTT12=Gretchen Wilson
EXTT13=Gretchen Wilson
EXTT14=Gretchen Wilson
PLAYORDER=
